<?xml version="1.0" standalone="no"?>
<svg viewBox="0 0 200 200" xmlns="http://www.w3.org/2000/svg">
  <path fill="#EEEEEE" d="M32.9,-57.9C44.3,-50.4,56.4,-45,63,-35.7C69.6,-26.4,70.7,-13.2,69.6,-0.7C68.5,11.9,65.1,23.8,59.6,34.9C54,46,46.3,56.4,36,61.2C25.7,66,12.9,65.2,-0.9,66.8C-14.7,68.4,-29.4,72.4,-40.9,68.3C-52.4,64.2,-60.8,52.1,-68.2,39.3C-75.6,26.6,-82.2,13.3,-84.4,-1.3C-86.6,-15.8,-84.4,-31.6,-75.4,-41.8C-66.5,-51.9,-50.8,-56.4,-37.1,-62.6C-23.4,-68.8,-11.7,-76.8,-0.5,-76C10.7,-75.1,21.5,-65.5,32.9,-57.9Z" transform="translate(100 100)" />
</svg>
